PathFileType	4	(X/Y/Z)	D:\MotionData\NordSprintingStudy\Test 2\Edited\COP_Right_Board_FP3000001.trc
DataRate	CameraRate	NumFrames	NumMarkers	Units	OrigDataRate	OrigDataStartFrame	OrigNumFrames
200.00	200.00	     70	5	mm	200.00	4427	     17704
Frame#	Time	M1			M2			M3			M4			M5			
		X1	Y1	Z1	X2	Y2	Z2	X3	Y3	Z3	X4	Y4	Z4	X5	Y5	Z5	

4427	22.130	2179.18457	486.11224	558.45172	2334.37109	763.36041	517.32678	2333.50049	793.38330	715.98987	2330.02344	853.19885	1111.46899	2173.76440	574.67444	1151.60034	
4428	22.135	2180.46704	486.28098	555.30322	2338.43555	762.73297	517.20062	2336.96802	791.87811	715.71680	2332.86743	850.03180	1111.70776	2174.37964	572.34326	1149.85571	
4429	22.140	2182.17969	486.43539	553.28931	2342.27539	761.94464	516.81616	2340.38501	790.23273	715.46899	2335.40283	846.75049	1111.40845	2175.40503	570.01239	1148.33972	
4430	22.145	2184.22974	486.53848	551.55096	2345.99438	761.12744	516.45874	2343.81958	788.66962	715.24677	2338.05615	843.52014	1111.38928	2176.19141	567.79480	1146.61633	
4431	22.150	2185.94092	486.59888	549.65094	2349.63550	760.28302	516.13843	2347.24463	786.96832	715.01794	2340.95972	840.35077	1111.55798	2176.51050	565.60999	1144.92810	
4432	22.155	2187.84985	486.67480	548.01447	2353.29053	759.41949	515.75201	2350.46777	785.37573	714.74982	2343.40771	837.07538	1111.26953	2177.66333	563.29059	1143.46326	
4433	22.160	2189.57788	486.74384	546.23572	2356.82080	758.52283	515.42328	2353.58521	783.60767	714.22021	2345.88159	833.80249	1111.12500	2178.42944	561.02197	1141.90955	
4434	22.165	2191.24487	486.72870	544.38226	2360.26196	757.58081	514.98541	2356.87622	781.97821	714.19568	2348.83008	830.65686	1111.27539	2179.28809	558.74835	1140.39172	
4435	22.170	2192.86865	486.72372	542.61865	2363.63940	756.61560	514.65741	2359.99561	780.24237	713.98907	2351.13794	827.39514	1110.87830	2180.16089	556.50586	1138.85327	
4436	22.175	2194.45264	486.65662	540.89032	2366.90137	755.62622	514.29730	2363.00464	778.48682	713.60486	2353.72168	824.16028	1110.80603	2180.75317	554.34570	1137.20459	
4437	22.180	2195.97290	486.61395	539.21271	2369.98950	754.50165	513.65289	2365.97900	776.78326	713.27765	2356.35913	821.00928	1110.64160	2181.87231	552.06317	1135.87952	
4438	22.185	2197.41650	486.47168	537.47577	2373.15088	753.41064	513.25720	2368.87305	774.98218	712.97650	2358.78320	817.82385	1110.44519	2182.69116	549.87103	1134.39099	
4439	22.190	2198.84155	486.33920	535.86444	2376.30151	752.39331	513.14246	2371.81812	773.20929	712.66052	2360.60059	814.21844	1109.86414	2183.37451	547.72473	1132.84009	
4440	22.195	2200.21045	486.12292	534.25482	2379.13940	751.20825	512.43042	2374.42212	771.37347	712.12085	2363.18701	811.36298	1109.64258	2184.39551	545.52258	1131.53687	
4441	22.200	2201.57129	485.95535	532.71191	2382.12842	750.08521	512.22937	2377.26050	769.62451	711.91962	2365.57397	808.37726	1109.41394	2185.21118	543.37140	1130.14294	
4442	22.205	2202.81592	485.70093	531.17053	2384.94360	748.88043	511.84628	2379.75903	767.67792	711.38818	2367.98364	805.27332	1109.19055	2185.80835	541.26782	1128.69971	
4443	22.210	2203.96313	485.44211	529.69409	2387.67334	747.62714	511.41537	2382.45605	765.87445	711.21533	2370.26782	802.16260	1108.90613	2186.87256	539.11700	1127.47424	
4444	22.215	2205.09180	485.15619	528.20038	2390.25049	746.22388	510.79675	2385.04785	763.94244	710.87250	2372.51367	799.09314	1108.64270	2187.35547	537.08862	1126.02979	
4445	22.220	2206.16602	484.83643	526.79102	2392.81250	744.89630	510.40396	2387.37720	761.96753	710.28455	2374.77612	795.99683	1108.39990	2188.14453	535.04840	1124.76160	
4446	22.225	2207.09717	484.47568	525.47784	2395.36523	743.47064	509.91855	2390.02393	760.03973	710.14667	2377.04028	792.93036	1108.03906	2188.96240	533.01892	1123.61426	
4447	22.230	2208.06763	484.09985	524.09979	2397.84033	741.97205	509.48352	2392.30615	757.96826	709.53943	2379.21826	789.88977	1107.73584	2189.44727	531.11206	1122.28381	
4448	22.235	2208.88062	483.65488	522.82336	2400.40942	740.54852	509.28241	2394.59717	755.99982	709.10016	2381.39624	786.82550	1107.45203	2190.23047	529.18213	1121.26917	
4449	22.240	2209.68140	483.21921	521.51575	2402.56812	738.85400	508.60843	2397.08252	753.88904	708.96161	2383.66260	783.76141	1107.13916	2190.79614	527.33392	1120.08508	
4450	22.245	2210.38916	482.79785	520.33423	2404.89722	737.20667	508.18579	2399.11328	751.78125	708.33643	2385.81006	780.74207	1106.81604	2191.29956	525.54431	1118.96045	
4451	22.250	2211.02661	482.28229	519.16223	2407.29053	735.51855	508.01404	2401.26587	749.60474	707.88629	2387.52637	777.86212	1106.46692	2191.55688	523.84406	1117.77405	
4452	22.255	2211.19116	482.03418	517.91754	2409.53735	733.78833	507.53989	2403.66846	747.40979	707.69440	2389.60156	774.88031	1106.03625	2192.21460	522.14929	1116.76733	
4453	22.260	2211.60498	481.54987	516.77679	2411.69507	731.93115	507.08646	2405.65527	745.20465	706.99664	2391.62500	771.92340	1105.63342	2192.56396	520.45557	1115.80859	
4454	22.265	2211.87695	481.09030	515.74426	2413.56079	729.98645	506.38571	2407.68262	742.90894	706.56049	2393.61914	768.95557	1105.17712	2192.58887	518.95343	1114.72644	
4455	22.270	2212.26343	480.57895	514.70453	2415.60889	728.02808	505.90363	2409.99976	740.62555	706.40094	2395.60571	766.05701	1104.71545	2192.90039	517.41486	1113.68262	
4456	22.275	2212.44678	480.03870	513.71344	2417.58374	726.00964	505.39511	2412.04272	738.33063	705.88965	2397.54712	763.16730	1104.24451	2193.14746	515.95020	1112.76770	
4457	22.280	2212.52466	479.51065	512.65283	2419.79688	724.00989	505.14063	2413.71362	735.97034	705.19104	2399.41016	760.12366	1103.63855	2193.41382	514.54053	1111.81641	
4458	22.285	2212.61255	478.91595	511.71713	2421.69043	721.90228	504.64377	2415.69385	733.59088	704.62610	2401.33252	757.24170	1103.14063	2193.82031	513.14258	1111.02197	
4459	22.290	2212.61719	478.34924	510.83261	2423.37793	719.69318	503.82983	2417.95166	731.13916	704.38251	2404.05078	754.37238	1102.86938	2193.89063	511.86929	1110.07629	
4460	22.295	2212.58301	477.76910	509.87006	2425.52075	717.43469	503.55814	2419.83276	728.68005	703.88635	2406.11914	751.17645	1102.36182	2194.07666	510.61823	1109.24316	
4461	22.300	2212.43506	477.20959	508.99603	2427.25830	715.17157	503.05310	2421.68213	726.19434	703.30798	2408.12549	748.28186	1101.81348	2194.11646	509.45193	1108.44177	
4462	22.305	2212.18530	476.63931	508.14041	2429.03125	712.84210	502.41953	2423.30005	723.61029	702.52441	2410.15430	745.34515	1101.29895	2194.12695	508.32208	1107.60022	
4463	22.310	2211.95850	476.06171	507.30038	2430.59106	710.33154	501.57935	2425.16699	720.99585	702.01013	2412.17310	742.43188	1100.76257	2194.15356	507.30045	1106.76758	
4464	22.315	2211.55542	475.50336	506.42316	2432.32593	708.05377	501.22815	2426.98242	718.37067	701.33118	2414.20801	739.53473	1100.18628	2193.88599	506.35263	1105.87244	
4465	22.320	2211.22437	474.93665	505.69336	2433.86328	705.53503	500.58826	2428.56030	715.91064	700.94714	2416.14746	736.62494	1099.62744	2194.01221	505.38263	1105.22546	
4466	22.325	2210.73096	474.35248	504.89703	2435.39429	702.96130	499.91202	2430.18579	713.24487	700.28082	2418.24512	733.67554	1098.99170	2193.68213	504.60300	1104.34412	
4467	22.330	2210.33740	473.80334	504.11548	2436.90527	700.36127	499.24072	2431.83667	710.54749	699.58649	2420.19458	730.80829	1098.35046	2193.75391	503.74368	1103.69189	
4468	22.335	2209.68311	473.25668	503.39609	2438.26929	697.69574	498.47052	2433.28979	707.80829	698.81396	2422.17578	727.87671	1097.70886	2193.58154	503.04373	1102.99146	
4469	22.340	2209.04077	472.67792	502.66257	2440.33765	694.52246	497.73138	2435.48901	704.63770	698.14087	2424.06934	725.01300	1097.05237	2193.41455	502.33972	1102.26184	
4470	22.345	2207.93408	472.03769	502.15582	2441.65308	691.78638	497.05148	2437.06689	701.86090	697.43030	2425.84839	722.20392	1096.39551	2193.26074	501.63797	1101.63318	
4471	22.350	2207.74316	471.40079	501.35721	2442.94141	689.09222	496.34943	2438.49219	699.11475	696.77618	2427.70239	719.44653	1095.65662	2193.11963	500.92172	1101.01965	
4472	22.355	2206.42456	470.47113	501.01224	2444.09253	686.37366	495.65643	2439.85913	696.42712	696.09204	2429.36182	716.74023	1095.00073	2193.08252	500.15649	1100.37036	
4473	22.360	2206.09375	469.65964	500.37393	2445.18896	683.70691	494.96570	2441.09277	693.76788	695.42151	2431.03906	714.11151	1094.35315	2193.04224	499.38519	1099.85791	
4474	22.365	2205.63892	468.80710	499.79990	2446.11572	681.07379	494.31519	2442.18018	691.12769	694.73279	2432.62622	711.56415	1093.64429	2193.02588	498.57294	1099.33984	
4475	22.370	2205.09912	467.84555	499.29315	2446.87524	678.46283	493.61731	2443.33862	688.57013	694.00690	2434.13599	709.04169	1092.97034	2192.90894	497.75790	1098.72253	
4476	22.375	2204.42944	466.86075	498.73489	2447.62256	675.89081	492.87091	2444.16455	686.05621	693.29791	2435.70728	706.60022	1092.26062	2192.97437	496.84213	1098.24268	
4477	22.380	2203.73608	465.51041	498.40552	2448.24023	673.41235	492.17590	2445.07056	683.55945	692.60236	2436.78760	704.17065	1091.32239	2193.12305	495.87027	1097.79382	
4478	22.385	2203.30908	464.35367	497.91815	2448.74951	670.96948	491.51007	2445.83105	681.15991	691.93298	2437.65015	702.08551	1090.53027	2193.35034	494.82526	1097.40271	
4479	22.390	2202.53296	463.16846	497.58521	2449.11621	668.63977	490.78842	2446.52319	678.86700	691.23523	2438.88354	699.85382	1089.83777	2193.91748	493.61221	1097.13843	
4480	22.395	2202.33350	461.79343	497.27563	2449.32788	666.36560	490.10614	2447.09839	676.64856	690.51495	2440.09131	697.73669	1089.22485	2194.18945	492.33340	1096.61633	
4481	22.400	2201.89502	460.31857	496.83405	2449.50000	664.19739	489.36917	2447.45410	674.53180	689.79785	2441.22144	695.65930	1088.59399	2194.40869	490.93442	1096.37109	
4482	22.405	2201.58154	458.83618	496.56113	2449.58569	662.07001	488.64438	2447.76099	672.40112	689.04462	2442.30591	693.61700	1087.94250	2195.19116	489.53311	1096.09009	
4483	22.410	2201.07178	457.27197	496.19562	2449.61230	659.91595	487.94299	2448.21509	670.26477	688.31317	2443.37598	691.54645	1087.32727	2195.64331	488.18997	1095.65491	
4484	22.415	2200.57593	455.79211	495.87103	2449.67139	657.72003	487.15005	2448.61548	668.12671	687.58270	2444.46460	689.48767	1086.60620	2196.16797	486.82227	1095.35315	
4485	22.420	2200.02930	454.37317	495.55371	2449.74756	655.46350	486.46689	2448.96094	665.90582	686.90265	2445.55078	687.36395	1085.98755	2196.48926	485.40771	1095.04395	
4486	22.425	2199.36206	453.01224	495.32889	2449.81543	653.12897	485.83606	2449.48047	663.64056	686.26068	2446.71460	685.14478	1085.33948	2196.57739	484.26038	1094.62158	
4487	22.430	2198.56079	451.80780	495.04855	2450.08838	650.65820	485.08386	2449.97192	661.17932	685.52100	2447.99902	682.79877	1084.64685	2197.05078	483.22202	1094.45276	
4488	22.435	2197.64063	450.79132	494.79541	2450.31885	648.06616	484.45087	2450.49414	658.63422	684.87952	2449.31519	680.36865	1083.99988	2197.18091	482.27927	1094.19690	
4489	22.440	2196.53662	449.94565	494.57941	2450.67505	645.32556	483.78958	2451.23389	655.94159	684.21002	2450.78491	677.71747	1083.39807	2197.37305	481.48077	1094.05066	
4490	22.445	2195.34326	449.32852	494.37189	2451.17554	642.32672	483.20847	2452.13354	652.98328	683.59137	2452.32617	674.87665	1082.79675	2197.19043	480.95895	1093.77991	
4491	22.450	2193.97388	448.89551	494.17728	2451.77637	639.17908	482.64584	2453.08301	649.87128	683.02277	2453.99731	671.87494	1082.16882	2196.83569	480.62503	1093.55579	
4492	22.455	2192.26831	448.43723	493.93411	2452.43335	635.84613	482.06216	2454.13452	646.56219	682.51154	2455.74219	668.69025	1081.59851	2196.11987	480.57245	1093.27319	
4493	22.460	2190.70532	448.60504	493.76965	2453.18774	632.35321	481.56311	2455.27734	643.10931	681.97864	2457.57495	665.35382	1081.04309	2195.58789	480.65030	1093.04333	
4494	22.465	2188.79688	448.52628	493.61279	2454.00708	628.70734	481.02161	2456.37598	639.51862	681.43781	2459.53271	661.82361	1080.52905	2195.03955	480.85956	1092.96252	
4495	22.470	2187.08032	448.98868	493.44574	2455.60547	624.72992	480.88559	2458.35840	635.54840	681.25214	2461.36768	658.18658	1080.07324	2193.75024	481.27209	1092.60376	
4496	22.475	2185.05981	449.18716	493.37094	2456.16626	620.99445	480.43884	2459.30640	631.82281	680.81549	2464.33789	654.20697	1079.90125	2193.18433	481.83557	1092.55005	
